<?xml version="1.0" encoding="UTF-8"?><svg id="Capa_3" xmlns="http://www.w3.org/2000/svg" viewBox="0 0 56.69 56.69"><defs><style>.cls-1{fill:none;stroke:#000;stroke-miterlimit:10;}.cls-2{fill:#1d1d1b;}.cls-3{fill:#fff;}</style></defs><circle class="cls-3" cx="28.35" cy="28.35" r="26.93"/><path class="cls-2" d="M18.11,26.93h-4.78v-3.05c0-.89-.05-1.44-.15-1.66-.1-.22-.33-.33-.68-.33-.39,0-.64.13-.75.4-.11.27-.16.84-.16,1.73v8.14c0,.85.05,1.41.16,1.67s.34.39.72.39.59-.13.7-.39c.11-.26.16-.87.16-1.83v-2.2h4.78v.68c0,1.81-.13,3.1-.4,3.86-.27.76-.86,1.42-1.78,1.99-.92.57-2.06.86-3.4.86s-2.56-.24-3.47-.73c-.91-.48-1.51-1.15-1.81-2.01-.3-.85-.44-2.14-.44-3.86v-5.12c0-1.26.05-2.21.14-2.84.09-.63.36-1.24.81-1.82.45-.59,1.08-1.04,1.87-1.38.8-.34,1.72-.5,2.76-.5,1.41,0,2.57.26,3.49.78.92.52,1.52,1.17,1.81,1.94.29.77.43,1.98.43,3.62v1.66Z"/><path class="cls-2" d="M30.76,29.56c0,1.76-.04,3.01-.13,3.74-.09.73-.36,1.4-.82,2.01-.46.61-1.08,1.07-1.86,1.4-.78.32-1.69.49-2.73.49s-1.87-.15-2.65-.46c-.78-.31-1.41-.77-1.89-1.38-.48-.61-.76-1.28-.85-2-.09-.72-.14-1.98-.14-3.79v-3c0-1.76.04-3.01.13-3.74.09-.73.36-1.4.82-2.01.46-.61,1.08-1.07,1.86-1.4s1.69-.49,2.73-.49,1.87.15,2.65.46c.78.31,1.42.77,1.89,1.38.48.61.76,1.28.85,2,.09.72.14,1.98.14,3.79v3ZM25.98,23.8c0-.82-.05-1.34-.14-1.56-.09-.23-.29-.34-.59-.34-.25,0-.44.09-.57.28-.13.18-.2.73-.2,1.63v8.18c0,1.02.04,1.65.13,1.88.09.24.29.36.61.36s.53-.14.63-.41c.09-.27.14-.93.14-1.96v-8.05Z"/><path class="cls-2" d="M37.33,19.3v17.52h-4.78v-17.52h4.78Z"/><path class="cls-2" d="M49.94,19.3v17.52h-4.19l-2.49-7.97v7.97h-4v-17.52h4l2.68,7.89v-7.89h4Z"/><circle class="cls-1" cx="28.35" cy="28.35" r="25.13"/></svg>