<?xml version="1.0" encoding="UTF-8"?><svg id="Capa_2" xmlns="http://www.w3.org/2000/svg" viewBox="0 0 56.69 56.69"><defs><style>.cls-1{fill:none;stroke:#000;stroke-miterlimit:10;}.cls-2{fill:#1d1d1b;}.cls-3{fill:#fff;}</style></defs><circle class="cls-3" cx="28.35" cy="28.35" r="26.93"/><path class="cls-2" d="M28.35,13.76c2.42,0,4.38-1.96,4.38-4.38s-1.96-4.38-4.38-4.38-4.38,1.96-4.38,4.38,1.96,4.38,4.38,4.38M22.51,24.7v24.8c0,1.21.98,2.19,2.19,2.19s2.19-.98,2.19-2.19v-13.86c0-.81.65-1.46,1.46-1.46s1.46.65,1.46,1.46v13.86c0,1.21.98,2.19,2.19,2.19s2.19-.98,2.19-2.19v-24.8c0-.4.33-.73.73-.73s.73.33.73.73v7.29c0,1.21.98,2.19,2.19,2.19s2.19-.98,2.19-2.19v-8.02c0-4.83-3.92-8.75-8.75-8.75h-5.83c-4.83,0-8.75,3.92-8.75,8.75v8.02c0,1.21.98,2.19,2.19,2.19s2.19-.98,2.19-2.19v-7.29c0-.4.33-.73.73-.73s.73.33.73.73"/><circle class="cls-1" cx="28.35" cy="28.35" r="25.13"/></svg>